<svg width="279" height="91" viewBox="0 0 279 91" fill="none" xmlns="http://www.w3.org/2000/svg">
<path d="M134.623 37.565C134.623 34.4359 137.154 31.8978 140.283 31.8978C143.412 31.8978 145.95 34.4283 145.95 37.565V38.0878C148.708 34.3601 152.511 31.6023 158.398 31.6023C167.71 31.6023 176.582 38.906 176.582 52.2482V52.3997C176.582 65.7419 167.861 73.0457 158.398 73.0457C152.36 73.0457 148.632 70.2878 145.95 67.083V79.0083C145.95 82.1374 143.42 84.6756 140.283 84.6756C137.154 84.6756 134.623 82.145 134.623 79.0083V37.565ZM165.247 52.3922V52.2406C165.247 45.6112 160.777 41.2093 155.481 41.2093C150.185 41.2093 145.791 45.6036 145.791 52.2406V52.3922C145.791 59.0216 150.185 63.4235 155.481 63.4235C160.777 63.4235 165.247 59.1049 165.247 52.3922Z" fill="#2648A1"/>
<path d="M180.313 22.8285C180.313 19.5479 183.071 17.5402 186.647 17.5402C190.223 17.5402 192.981 19.5555 192.981 22.8285V22.9801C192.981 26.2607 190.223 28.3442 186.647 28.3442C183.071 28.3442 180.313 26.2607 180.313 22.9801V22.8285ZM180.987 37.58C180.987 34.4509 183.518 31.9127 186.654 31.9127C189.783 31.9127 192.314 34.4433 192.314 37.58V67.0903C192.314 70.2194 189.783 72.7576 186.654 72.7576C183.525 72.7576 180.987 70.227 180.987 67.0903V37.58Z" fill="#2648A1"/>
<path d="M198.474 37.565C198.474 34.4359 201.005 31.8978 204.142 31.8978C207.271 31.8978 209.801 34.4283 209.801 37.565V38.0878C212.559 34.3601 216.362 31.6023 222.249 31.6023C231.561 31.6023 240.433 38.906 240.433 52.2482V52.3997C240.433 65.7419 231.712 73.0457 222.249 73.0457C216.211 73.0457 212.483 70.2878 209.801 67.083V79.0083C209.801 82.1374 207.271 84.6756 204.142 84.6756C201.012 84.6756 198.474 82.145 198.474 79.0083V37.565ZM229.106 52.3922V52.2406C229.106 45.6112 224.636 41.2093 219.34 41.2093C214.052 41.2093 209.65 45.6036 209.65 52.2406V52.3922C209.65 59.0216 214.044 63.4235 219.34 63.4235C224.628 63.4235 229.106 59.1049 229.106 52.3922Z" fill="#2648A1"/>
<path d="M241.94 60.8407V60.6892C241.94 51.9686 248.569 47.9455 258.04 47.9455C262.063 47.9455 264.972 48.6198 267.806 49.5821V48.9077C267.806 44.2103 264.896 41.604 259.237 41.604C256.108 41.604 253.57 42.051 251.41 42.7253C250.744 42.9526 250.289 43.0208 249.774 43.0208C247.167 43.0208 245.076 41.0055 245.076 38.3992C245.076 36.3838 246.342 34.6715 248.13 34.0048C251.706 32.6638 255.585 31.9213 260.873 31.9213C267.056 31.9213 271.533 33.5578 274.359 36.3914C277.337 39.3689 278.678 43.7709 278.678 49.135V67.3186C278.678 70.3719 276.216 72.7585 273.162 72.7585C269.882 72.7585 267.722 70.4477 267.722 68.0611V67.9853C264.965 71.0387 261.161 73.054 255.653 73.054C248.122 73.0616 241.94 68.743 241.94 60.8407ZM267.942 58.2344V56.2191C266.003 55.325 263.472 54.7265 260.714 54.7265C255.873 54.7265 252.888 56.6661 252.888 60.2422V60.3937C252.888 63.447 255.418 65.2351 259.07 65.2351C264.366 65.2351 267.942 62.3333 267.942 58.2344Z" fill="#2648A1"/>
<path d="M17.8917 31.451C17.8917 30.1479 16.831 29.0796 15.5203 29.0796H3.04942C1.73869 29.0872 0.677979 30.1479 0.677979 31.451C0.677979 32.7542 1.73869 33.8225 3.04942 33.8225H15.5279C16.831 33.8225 17.8917 32.7617 17.8917 31.451ZM25.7107 13.3508H38.1816C39.4847 13.3508 40.553 12.2901 40.553 10.9794C40.553 9.66863 39.4923 8.60792 38.1816 8.60792H25.7107C24.4075 8.60792 23.3392 9.66863 23.3392 10.9794C23.3392 12.2901 24.4075 13.3508 25.7107 13.3508ZM18.5888 49.5588H10.8608C9.55761 49.5588 8.48933 50.6195 8.48933 51.9303C8.48933 53.241 9.55004 54.3017 10.8608 54.3017H18.5812C19.8844 54.3017 20.9526 53.241 20.9526 51.9303C20.9526 50.6195 19.8919 49.5588 18.5888 49.5588ZM16.3916 70.0835H11.1335C9.83037 70.0835 8.76208 71.1442 8.76208 72.4549C8.76208 73.7657 9.82279 74.8264 11.1335 74.8264H16.3992C17.7023 74.8264 18.7706 73.7657 18.7706 72.4549C18.7706 71.1442 17.7023 70.0835 16.3916 70.0835ZM113.848 12.828C105.286 4.8121 93.9975 0.402588 82.0645 0.402588C72.9121 0.402588 64.1386 3.10739 56.6909 8.22152L56.3424 8.46397H44.8337C43.5836 8.46397 42.5759 9.47921 42.5759 10.7218C42.5759 11.9643 43.5912 12.9796 44.8337 12.9796H52.6072L45.8565 18.5558C43.7503 21.2455 41.9395 24.2609 40.4848 27.534L40.1211 28.3447H23.2635C22.0133 28.3447 21.0057 29.3599 21.0057 30.6025C21.0057 31.8526 22.0209 32.8602 23.2635 32.8602H43.1517L43.182 32.8375L37.3254 38.0577C36.9466 40.4822 36.7572 42.8233 36.7572 45.1948C36.7572 45.4902 36.7799 45.7857 36.7951 46.0964C36.8102 46.3312 36.8254 46.5661 36.8329 46.801L36.886 48.2178H25.9001C24.65 48.2178 23.6423 49.233 23.6423 50.4756C23.6423 51.7181 24.6575 52.7334 25.9001 52.7334H42.5305L42.6971 52.5894L38.3861 57.2489C39.2498 60.3098 40.4772 63.2874 42.0531 66.1134L43.182 68.1439H24.1045C22.8543 68.1439 21.8467 69.1592 21.8467 70.4017C21.8467 71.6518 22.8619 72.6595 24.1045 72.6595H52.1071L49.4478 76.2053L50.0312 76.7887C50.0691 76.8266 50.1145 76.872 50.1524 76.9099C50.1827 76.9402 50.2206 76.9705 50.2509 77.0084L50.4024 77.1599C58.9184 85.5016 70.4271 90.0854 82.8676 90.0854C92.3837 90.0854 100.68 87.8428 108.984 83.0166C109.908 82.4635 110.416 81.6225 110.416 80.6527C110.416 79.1147 109.158 77.7661 107.726 77.7661C107.294 77.7661 106.643 77.8949 106.18 78.1828L106.135 78.2131C98.5131 82.5392 91.7776 84.3121 82.8676 84.3121C71.7454 84.3121 61.5853 80.2739 54.2513 72.9474C47.0536 65.7498 43.0835 55.9458 43.0835 45.3387C43.0835 34.815 47.0385 24.9883 54.2285 17.6618C61.502 10.2444 71.3817 6.16072 82.057 6.16072C92.5655 6.16072 102.407 9.95653 109.772 16.8587C116.795 23.4351 120.826 32.2769 120.826 41.1262C120.773 45.369 120.182 49.0436 119.068 52.0591L119.038 52.1348C114.424 62.5979 100.294 64.0072 98.6722 64.136C97.8388 64.189 96.9826 64.2117 96.1189 64.2117C94.6945 64.2117 93.2171 64.1435 91.7321 64.0072C87.9212 63.6586 85.1785 62.9843 84.7315 62.8707C83.8753 62.7192 83.0343 62.5222 82.2388 62.2722C77.0641 60.6508 74.2683 57.2035 72.8288 54.6048C72.2909 53.635 71.8514 52.6197 71.5181 51.5742C71.3741 51.1044 71.2529 50.6347 71.1468 50.1725L70.7831 48.5133H104.468C104.521 47.7329 104.559 46.9752 104.559 46.3161C104.559 34.9741 98.8237 21.7304 82.6479 21.7304C69.9573 21.7304 60.3806 31.8374 60.3806 45.2478V45.4296C60.3806 47.9905 60.7216 50.4528 61.3959 52.7561C63.3052 59.2643 67.7904 64.2723 74.0259 66.8635L74.0865 66.8938C80.9811 70.1744 88.6182 70.6669 92.558 70.6669C94.1566 70.6669 95.1264 70.5835 95.1415 70.5835L95.2325 70.576C107.021 70.3108 115.719 66.8256 121.106 60.181C124.493 55.9988 126.448 50.1119 126.758 43.1491C126.788 42.4672 126.804 41.7853 126.804 41.1262C126.819 30.8601 122.091 20.5485 113.848 12.828ZM70.965 41.1868C72.1924 34.1104 76.564 29.8903 82.6555 29.8903C85.777 29.8903 88.497 31.004 90.5199 33.1178C92.414 35.0953 93.6414 37.9062 94.0884 41.2398L94.293 42.7854H70.6922L70.965 41.1868Z" fill="url(#paint0_linear_1_340)"/>
<defs>
<linearGradient id="paint0_linear_1_340" x1="0.677979" y1="45.2571" x2="126.818" y2="45.2571" gradientUnits="userSpaceOnUse">
<stop stop-color="#E7982F"/>
<stop offset="1" stop-color="#E8B743"/>
</linearGradient>
</defs>
</svg>
